<svg width="144" height="80" viewBox="0 0 144 80" fill="none" xmlns="http://www.w3.org/2000/svg">
<path d="M24.2773 1.20215C27.3741 1.20223 30.4364 3.41607 33.3115 7.69727C36.1747 11.9607 38.7732 18.1631 40.9629 25.8721C45.3403 41.2831 48.0547 62.6021 48.0547 86.1709C48.0547 109.74 45.3403 131.059 40.9629 146.47C38.7732 154.179 36.1747 160.381 33.3115 164.645C30.4363 168.926 27.3741 171.14 24.2773 171.14C21.1805 171.14 18.1175 168.926 15.2422 164.645C12.3791 160.381 9.78146 154.179 7.5918 146.47C3.21439 131.059 0.5 109.74 0.5 86.1709C0.500013 62.6021 3.21435 41.2831 7.5918 25.8721C9.7815 18.1631 12.379 11.9607 15.2422 7.69727C18.1175 3.4158 21.1805 1.20215 24.2773 1.20215Z" stroke="#082445"/>
<path d="M47.2241 1.20215C50.3208 1.20223 53.3831 3.41607 56.2583 7.69727C59.1215 11.9607 61.72 18.1631 63.9097 25.8721C68.2871 41.2831 71.0015 62.6021 71.0015 86.1709C71.0015 109.74 68.2871 131.059 63.9097 146.47C61.72 154.179 59.1215 160.381 56.2583 164.645C53.3831 168.926 50.3209 171.14 47.2241 171.14C44.1273 171.14 41.0642 168.926 38.189 164.645C35.3259 160.381 32.7282 154.179 30.5386 146.47C26.1612 131.059 23.4468 109.74 23.4468 86.1709C23.4468 62.6021 26.1611 41.2831 30.5386 25.8721C32.7283 18.1631 35.3258 11.9607 38.189 7.69727C41.0642 3.4158 44.1273 1.20215 47.2241 1.20215Z" stroke="#082445"/>
<path d="M71.5012 1.20215C74.5979 1.20223 77.6602 3.41607 80.5354 7.69727C83.3986 11.9607 85.9971 18.1631 88.1868 25.8721C92.5642 41.2831 95.2786 62.6021 95.2786 86.1709C95.2786 109.74 92.5642 131.059 88.1868 146.47C85.9971 154.179 83.3986 160.381 80.5354 164.645C77.6602 168.926 74.598 171.14 71.5012 171.14C68.4044 171.14 65.3413 168.926 62.4661 164.645C59.603 160.381 57.0053 154.179 54.8157 146.47C50.4383 131.059 47.7239 109.74 47.7239 86.1709C47.7239 62.6021 50.4382 41.2831 54.8157 25.8721C57.0054 18.1631 59.6029 11.9607 62.4661 7.69727C65.3413 3.4158 68.4044 1.20215 71.5012 1.20215Z" stroke="#082445"/>
<path d="M96.4436 1.20215C99.5403 1.20223 102.603 3.41607 105.478 7.69727C108.341 11.9607 110.939 18.1631 113.129 25.8721C117.507 41.2831 120.221 62.6021 120.221 86.1709C120.221 109.74 117.507 131.059 113.129 146.47C110.939 154.179 108.341 160.381 105.478 164.645C102.603 168.926 99.5404 171.14 96.4436 171.14C93.3468 171.14 90.2837 168.926 87.4084 164.645C84.5453 160.381 81.9477 154.179 79.7581 146.47C75.3807 131.059 72.6663 109.74 72.6663 86.1709C72.6663 62.6021 75.3806 41.2831 79.7581 25.8721C81.9478 18.1631 84.5453 11.9607 87.4084 7.69727C90.2837 3.4158 93.3468 1.20215 96.4436 1.20215Z" stroke="#082445"/>
<path d="M119.723 1.20215C122.82 1.20223 125.882 3.41607 128.757 7.69727C131.62 11.9607 134.219 18.1631 136.408 25.8721C140.786 41.2831 143.5 62.6021 143.5 86.1709C143.5 109.74 140.786 131.059 136.408 146.47C134.219 154.179 131.62 160.381 128.757 164.645C125.882 168.926 122.82 171.14 119.723 171.14C116.626 171.14 113.563 168.926 110.688 164.645C107.825 160.381 105.227 154.179 103.037 146.47C98.6599 131.059 95.9456 109.74 95.9456 86.1709C95.9456 62.6021 98.6599 41.2831 103.037 25.8721C105.227 18.1631 107.825 11.9607 110.688 7.69727C113.563 3.4158 116.626 1.20215 119.723 1.20215Z" stroke="#082445"/>
</svg>
