<svg width="256" height="77" viewBox="0 0 256 77" fill="none" xmlns="http://www.w3.org/2000/svg">
<rect width="255.316" height="76.2632" rx="10" fill="#082445"/>
<path d="M70.9761 23.1211H42.2998V54.0614H50.2812V43.9955H65.5752L72.5532 54.0614H81.4903L73.7957 43.9491C76.1855 43.5782 77.906 42.6966 78.9575 41.3051C80.0088 39.9136 80.5347 37.6868 80.5347 34.7181V32.3987C80.5347 30.6359 80.3437 29.2444 80.009 28.1775C79.6743 27.1106 79.1007 26.1827 78.2883 25.3478C77.428 24.5592 76.4723 24.0026 75.3252 23.6316C74.1781 23.307 72.7442 23.1211 70.9761 23.1211ZM69.6857 37.1768H50.2812V29.94H69.6857C70.7846 29.94 71.5494 30.1254 71.9317 30.4503C72.3141 30.7749 72.5532 31.3779 72.5532 32.2594V34.8571C72.5532 35.7848 72.3141 36.3877 71.9317 36.7124C71.5494 37.037 70.7849 37.1763 69.6857 37.1763V37.1768Z" stroke="#E4DEDC" stroke-width="3.17763" stroke-linecap="round" stroke-linejoin="round"/>
<path d="M79.882 22.591C81.3437 22.591 82.5295 21.4055 82.5295 19.9429C82.5295 18.4804 81.3437 17.2949 79.882 17.2949C78.4192 17.2949 77.2334 18.4804 77.2334 19.9429C77.2334 21.4055 78.4192 22.591 79.882 22.591Z" fill="#E4DEDC"/>
<path d="M100.476 47V25.0274H110.039C111.029 25.0274 111.937 25.2337 112.762 25.6463C113.587 26.0589 114.299 26.6057 114.897 27.2865C115.516 27.9674 115.991 28.7307 116.321 29.5766C116.672 30.4225 116.847 31.2891 116.847 32.1762C116.847 33.1459 116.672 34.0743 116.321 34.9615C115.97 35.8486 115.465 36.612 114.804 37.2516C114.165 37.8912 113.412 38.3554 112.545 38.6442L117.713 47H113.814L109.048 39.356H103.942V47H100.476ZM103.942 36.2922H110.008C110.647 36.2922 111.215 36.1065 111.71 35.7352C112.205 35.3638 112.597 34.8686 112.886 34.2497C113.175 33.6101 113.319 32.9189 113.319 32.1762C113.319 31.4128 113.154 30.732 112.824 30.1337C112.494 29.5147 112.06 29.0196 111.524 28.6482C111.008 28.2768 110.441 28.0912 109.822 28.0912H103.942V36.2922ZM130.066 47.1547C128.313 47.1547 126.827 46.8556 125.61 46.2573C124.413 45.6589 123.444 44.844 122.701 43.8124C121.979 42.7808 121.442 41.6048 121.092 40.2844C120.761 38.964 120.596 37.592 120.596 36.1684V25.0274H124.063V36.1684C124.063 37.1794 124.166 38.1594 124.372 39.1084C124.578 40.0368 124.908 40.8724 125.362 41.6152C125.816 42.3579 126.425 42.9459 127.188 43.3792C127.972 43.8124 128.932 44.0291 130.066 44.0291C131.222 44.0291 132.181 43.8124 132.944 43.3792C133.728 42.9253 134.337 42.3269 134.77 41.5842C135.224 40.8208 135.554 39.9749 135.761 39.0465C135.967 38.1181 136.07 37.1587 136.07 36.1684V25.0274H139.567V36.1684C139.567 37.6745 139.381 39.0981 139.01 40.4392C138.659 41.7596 138.102 42.9253 137.339 43.9362C136.596 44.9265 135.627 45.7105 134.43 46.2882C133.233 46.8659 131.779 47.1547 130.066 47.1547ZM160.3 28.0912H152.997V47H149.5V28.0912H142.165V25.0274H160.3V28.0912ZM172.407 47.1547C170.654 47.1547 169.168 46.8556 167.951 46.2573C166.754 45.6589 165.785 44.844 165.042 43.8124C164.32 42.7808 163.783 41.6048 163.433 40.2844C163.103 38.964 162.937 37.592 162.937 36.1684V25.0274H166.404V36.1684C166.404 37.1794 166.507 38.1594 166.713 39.1084C166.919 40.0368 167.249 40.8724 167.703 41.6152C168.157 42.3579 168.766 42.9459 169.529 43.3792C170.313 43.8124 171.273 44.0291 172.407 44.0291C173.563 44.0291 174.522 43.8124 175.285 43.3792C176.069 42.9253 176.678 42.3269 177.111 41.5842C177.565 40.8208 177.895 39.9749 178.102 39.0465C178.308 38.1181 178.411 37.1587 178.411 36.1684V25.0274H181.908V36.1684C181.908 37.6745 181.723 39.0981 181.351 40.4392C181 41.7596 180.443 42.9253 179.68 43.9362C178.937 44.9265 177.968 45.7105 176.771 46.2882C175.574 46.8659 174.12 47.1547 172.407 47.1547ZM203.787 41.3366C203.787 42.5126 203.477 43.5236 202.858 44.3695C202.26 45.2154 201.445 45.8653 200.413 46.3192C199.382 46.7731 198.247 47 197.009 47H186.518V25.0274H197.845C198.876 25.0274 199.763 25.3059 200.506 25.8629C201.27 26.3994 201.847 27.1008 202.239 27.9674C202.652 28.8133 202.858 29.7004 202.858 30.6288C202.858 31.7017 202.58 32.7126 202.023 33.6617C201.486 34.5901 200.712 35.2813 199.702 35.7352C200.96 36.1065 201.95 36.7874 202.672 37.7777C203.415 38.7474 203.787 39.9337 203.787 41.3366ZM200.228 40.6867C200.228 40.0678 200.094 39.5107 199.825 39.0156C199.578 38.4998 199.227 38.0872 198.773 37.7777C198.34 37.4476 197.824 37.2825 197.226 37.2825H189.984V43.9981H197.009C197.628 43.9981 198.175 43.8537 198.649 43.5648C199.144 43.2554 199.526 42.8531 199.794 42.3579C200.083 41.8421 200.228 41.2851 200.228 40.6867ZM189.984 28.0293V34.4973H196.359C196.937 34.4973 197.453 34.3632 197.907 34.0949C198.36 33.8061 198.722 33.4244 198.99 32.9499C199.258 32.4547 199.392 31.8977 199.392 31.2787C199.392 30.6392 199.268 30.0821 199.021 29.6076C198.773 29.1124 198.433 28.7307 197.999 28.4625C197.587 28.1737 197.102 28.0293 196.545 28.0293H189.984ZM222.473 43.9362V47H207.401V25.0274H222.194V28.0912H210.867V34.3425H220.678V37.2206H210.867V43.9362H222.473Z" fill="white"/>
<path d="M98 50.8684H223.587V52.4158H98V50.8684Z" fill="white"/>
</svg>
