<svg width="256" height="77" viewBox="0 0 256 77" fill="none" xmlns="http://www.w3.org/2000/svg">
<rect width="255.316" height="76.2632" rx="10" fill="#082445"/>
<path d="M46.8828 53.0511C30.6478 53.0511 21.3897 41.8507 21 23.209H29.1365C29.4027 36.8866 35.4005 42.6829 40.1531 43.8785V23.209H47.8143V35.0119C52.5004 34.505 57.4337 29.1296 59.0971 23.209H66.7583C65.4846 30.4973 60.1427 35.8727 56.3406 38.0822C60.1427 39.8708 66.226 44.5671 68.5453 53.0511H60.1142C58.2987 47.3792 53.7932 42.9889 47.8239 42.3864V53.0511H46.9018H46.8828Z" fill="#E4DEDC"/>
<path d="M89.8684 25.0274L96.4912 42.7602L103.083 25.0274H106.766L98.1314 47H94.8509L86.1857 25.0274H89.8684ZM109.45 47V25.0583H112.916V36.3541L123.252 25.0274H127.09L118.425 34.7448L127.585 47H123.655L116.227 36.9421L112.916 40.3773V47H109.45ZM147.6 25.0274L132.529 47H128.754L143.825 25.0274H147.6ZM152.458 25.0274L159.081 42.7602L165.673 25.0274H169.356L160.721 47H157.441L148.776 25.0274H152.458ZM172.04 47V25.0274H175.506V47H172.04ZM180.472 47V25.0274H188.27C190.643 25.0274 192.624 25.5225 194.212 26.5128C195.801 27.4825 196.987 28.8029 197.771 30.4741C198.576 32.1246 198.978 33.9608 198.978 35.9827C198.978 38.2109 198.535 40.1503 197.647 41.8008C196.781 43.4514 195.543 44.7305 193.934 45.6383C192.325 46.5461 190.437 47 188.27 47H180.472ZM195.45 35.9827C195.45 34.4354 195.161 33.0737 194.584 31.8977C194.027 30.7011 193.212 29.7726 192.139 29.1124C191.087 28.4316 189.797 28.0912 188.27 28.0912H183.938V43.9362H188.27C189.818 43.9362 191.118 43.5855 192.17 42.884C193.243 42.1825 194.058 41.2335 194.615 40.0368C195.172 38.8402 195.45 37.4888 195.45 35.9827ZM217.696 43.9362V47H202.624V25.0274H217.417V28.0912H206.091V34.3425H215.901V37.2206H206.091V43.9362H217.696ZM230.008 47.1547C228.419 47.1547 226.985 46.8453 225.706 46.2263C224.427 45.6074 223.323 44.7718 222.395 43.7196C221.467 42.6467 220.744 41.4501 220.229 40.1297C219.733 38.7886 219.486 37.4166 219.486 36.0137C219.486 34.5488 219.754 33.1562 220.291 31.8358C220.827 30.4947 221.57 29.3084 222.519 28.2768C223.468 27.2246 224.582 26.3994 225.861 25.8011C227.161 25.1821 228.564 24.8726 230.07 24.8726C231.638 24.8726 233.061 25.1924 234.341 25.832C235.64 26.4716 236.744 27.3278 237.652 28.4006C238.58 29.4735 239.292 30.6701 239.787 31.9905C240.303 33.3109 240.561 34.6623 240.561 36.0446C240.561 37.5095 240.293 38.9124 239.756 40.2535C239.241 41.5739 238.508 42.7602 237.559 43.8124C236.61 44.844 235.486 45.6589 234.186 46.2573C232.907 46.8556 231.514 47.1547 230.008 47.1547ZM223.014 36.0137C223.014 37.0453 223.179 38.0459 223.509 39.0156C223.839 39.9853 224.303 40.8518 224.902 41.6152C225.521 42.3579 226.263 42.9459 227.13 43.3792C227.996 43.8124 228.966 44.0291 230.039 44.0291C231.153 44.0291 232.143 43.8021 233.01 43.3482C233.876 42.8943 234.599 42.2857 235.176 41.5223C235.775 40.7383 236.228 39.8718 236.538 38.9227C236.847 37.9531 237.002 36.9834 237.002 36.0137C237.002 34.9821 236.837 33.9918 236.507 33.0427C236.197 32.0731 235.733 31.2168 235.114 30.4741C234.495 29.7107 233.753 29.1124 232.886 28.6792C232.04 28.2459 231.091 28.0293 230.039 28.0293C228.925 28.0293 227.935 28.2562 227.068 28.7101C226.201 29.164 225.469 29.7726 224.871 30.536C224.272 31.2994 223.808 32.1556 223.478 33.1046C223.169 34.0537 223.014 35.0234 223.014 36.0137Z" fill="white"/>
<path d="M86 50.8684H241.675V52.4158H86V50.8684Z" fill="white"/>
</svg>
