<svg width="256" height="77" viewBox="0 0 256 77" fill="none" xmlns="http://www.w3.org/2000/svg">
<rect width="255.316" height="76.2632" rx="10" fill="#082445"/>
<g clip-path="url(#clip0_85_33)">
<path d="M67.9557 28.4845C67.5298 25.1049 65.5631 22.9813 62.0828 22.665C58.095 22.3035 49.476 22.0957 45.4791 22.0957C37.3041 22.1047 33.6517 22.3035 29.7817 22.7012C26.093 23.0807 24.4798 24.7163 23.8454 28.0869C23.4013 30.4545 23.2109 32.6594 23.2109 37.8916C23.2109 42.5906 23.4375 45.5455 23.7819 48.0306C24.2532 51.4464 26.6096 53.3622 30.0536 53.6513C34.0595 53.9857 42.0895 54.1483 46.0592 54.1483C50.0288 54.1483 58.5301 53.9495 62.3638 53.5158C65.7987 53.1272 67.4301 51.3018 67.9648 47.9312C67.9648 47.9312 68.5358 44.2443 68.5358 37.8554C68.5358 34.2227 68.273 30.8431 67.9648 28.4845H67.9557ZM41.0472 44.4792V31.4937L53.4547 37.9187L41.0472 44.4792Z" fill="#E4DEDC"/>
</g>
<path d="M90.0851 25.0274L96.1507 35.9518L102.278 25.0274H106.085L97.8838 39.1394V47H94.4177V39.0775L86.2785 25.0274H90.0851ZM116.524 47.1547C114.936 47.1547 113.502 46.8453 112.223 46.2263C110.943 45.6074 109.84 44.7718 108.911 43.7196C107.983 42.6467 107.261 41.4501 106.745 40.1297C106.25 38.7886 106.002 37.4166 106.002 36.0137C106.002 34.5488 106.27 33.1562 106.807 31.8358C107.343 30.4947 108.086 29.3084 109.035 28.2768C109.984 27.2246 111.098 26.3994 112.377 25.8011C113.677 25.1821 115.08 24.8726 116.586 24.8726C118.154 24.8726 119.578 25.1924 120.857 25.832C122.157 26.4716 123.26 27.3278 124.168 28.4006C125.097 29.4735 125.808 30.6701 126.304 31.9905C126.819 33.3109 127.077 34.6623 127.077 36.0446C127.077 37.5095 126.809 38.9124 126.273 40.2535C125.757 41.5739 125.024 42.7602 124.075 43.8124C123.126 44.844 122.002 45.6589 120.702 46.2573C119.423 46.8556 118.03 47.1547 116.524 47.1547ZM109.53 36.0137C109.53 37.0453 109.695 38.0459 110.025 39.0156C110.355 39.9853 110.82 40.8518 111.418 41.6152C112.037 42.3579 112.78 42.9459 113.646 43.3792C114.513 43.8124 115.482 44.0291 116.555 44.0291C117.669 44.0291 118.66 43.8021 119.526 43.3482C120.393 42.8943 121.115 42.2857 121.692 41.5223C122.291 40.7383 122.745 39.8718 123.054 38.9227C123.364 37.9531 123.518 36.9834 123.518 36.0137C123.518 34.9821 123.353 33.9918 123.023 33.0427C122.714 32.0731 122.25 31.2168 121.631 30.4741C121.012 29.7107 120.269 29.1124 119.402 28.6792C118.556 28.2459 117.607 28.0293 116.555 28.0293C115.441 28.0293 114.451 28.2562 113.584 28.7101C112.718 29.164 111.985 29.7726 111.387 30.536C110.789 31.2994 110.324 32.1556 109.994 33.1046C109.685 34.0537 109.53 35.0234 109.53 36.0137ZM139.826 47.1547C138.072 47.1547 136.587 46.8556 135.37 46.2573C134.173 45.6589 133.203 44.844 132.461 43.8124C131.739 42.7808 131.202 41.6048 130.851 40.2844C130.521 38.964 130.356 37.592 130.356 36.1684V25.0274H133.822V36.1684C133.822 37.1794 133.926 38.1594 134.132 39.1084C134.338 40.0368 134.668 40.8724 135.122 41.6152C135.576 42.3579 136.185 42.9459 136.948 43.3792C137.732 43.8124 138.691 44.0291 139.826 44.0291C140.982 44.0291 141.941 43.8124 142.704 43.3792C143.488 42.9253 144.097 42.3269 144.53 41.5842C144.984 40.8208 145.314 39.9749 145.52 39.0465C145.727 38.1181 145.83 37.1587 145.83 36.1684V25.0274H149.327V36.1684C149.327 37.6745 149.141 39.0981 148.77 40.4392C148.419 41.7596 147.862 42.9253 147.099 43.9362C146.356 44.9265 145.386 45.7105 144.19 46.2882C142.993 46.8659 141.539 47.1547 139.826 47.1547ZM170.06 28.0912H162.757V47H159.26V28.0912H151.925V25.0274H170.06V28.0912ZM182.167 47.1547C180.414 47.1547 178.928 46.8556 177.711 46.2573C176.514 45.6589 175.545 44.844 174.802 43.8124C174.08 42.7808 173.543 41.6048 173.193 40.2844C172.862 38.964 172.697 37.592 172.697 36.1684V25.0274H176.163V36.1684C176.163 37.1794 176.267 38.1594 176.473 39.1084C176.679 40.0368 177.009 40.8724 177.463 41.6152C177.917 42.3579 178.526 42.9459 179.289 43.3792C180.073 43.8124 181.033 44.0291 182.167 44.0291C183.323 44.0291 184.282 43.8124 185.045 43.3792C185.829 42.9253 186.438 42.3269 186.871 41.5842C187.325 40.8208 187.655 39.9749 187.862 39.0465C188.068 38.1181 188.171 37.1587 188.171 36.1684V25.0274H191.668V36.1684C191.668 37.6745 191.482 39.0981 191.111 40.4392C190.76 41.7596 190.203 42.9253 189.44 43.9362C188.697 44.9265 187.727 45.7105 186.531 46.2882C185.334 46.8659 183.88 47.1547 182.167 47.1547ZM213.546 41.3366C213.546 42.5126 213.237 43.5236 212.618 44.3695C212.02 45.2154 211.205 45.8653 210.173 46.3192C209.142 46.7731 208.007 47 206.769 47H196.278V25.0274H207.605C208.636 25.0274 209.523 25.3059 210.266 25.8629C211.029 26.3994 211.607 27.1008 211.999 27.9674C212.412 28.8133 212.618 29.7004 212.618 30.6288C212.618 31.7017 212.339 32.7126 211.782 33.6617C211.246 34.5901 210.472 35.2813 209.461 35.7352C210.72 36.1065 211.71 36.7874 212.432 37.7777C213.175 38.7474 213.546 39.9337 213.546 41.3366ZM209.987 40.6867C209.987 40.0678 209.853 39.5107 209.585 39.0156C209.338 38.4998 208.987 38.0872 208.533 37.7777C208.1 37.4476 207.584 37.2825 206.986 37.2825H199.744V43.9981H206.769C207.388 43.9981 207.935 43.8537 208.409 43.5648C208.904 43.2554 209.286 42.8531 209.554 42.3579C209.843 41.8421 209.987 41.2851 209.987 40.6867ZM199.744 28.0293V34.4973H206.119C206.697 34.4973 207.213 34.3632 207.666 34.0949C208.12 33.8061 208.481 33.4244 208.75 32.9499C209.018 32.4547 209.152 31.8977 209.152 31.2787C209.152 30.6392 209.028 30.0821 208.781 29.6076C208.533 29.1124 208.193 28.7307 207.759 28.4625C207.347 28.1737 206.862 28.0293 206.305 28.0293H199.744ZM232.233 43.9362V47H217.161V25.0274H231.954V28.0912H220.627V34.3425H230.438V37.2206H220.627V43.9362H232.233Z" fill="white"/>
<path d="M86 50.8684H233.347V52.4158H86V50.8684Z" fill="white"/>
<defs>
<clipPath id="clip0_85_33">
<rect width="45.3158" height="32.0526" fill="white" transform="translate(23.2109 22.1035)"/>
</clipPath>
</defs>
</svg>
